# xmcd
# Track frame offsets:
# 182
# 11337
# 22157
# 35302
# 46767
# 55520
# 68822
# 79217
# 89790
# 100190
# 112967
# 123090
# 132135
# 144870
# 157015
# 168795
# 180280
# 190785
# 200322
# 212275
#
# Disc length: 2971 seconds
# Revision: 0
# Processed by: cddbd v1.5PL3 Copyright (c) Steve Scherf et al.
# Submitted via: VisiTrax 2.9.9.202 - For more info visit www.synapsa.com
#
DISCID=f40b9914
DTITLE=Patsy Cline - Come On In
DYEAR=1989
DGENRE=Country
TTITLE0=I Cried All The Way To The Altar
TTITLE1=Honky Tonk Merry Go Round
TTITLE2=If I Could See The World
TTITLE3=Cry Not For Me
TTITLE4=Come On In
TTITLE5=Life's Railway To Heaven
TTITLE6=Pick Me Up On Your Way Down
TTITLE7=Too Many Secrets
TTITLE8=Three Cigarettes In An Ashtray
TTITLE9=Yes I Understand
TTITLE10=Turn The Cards Slowly
TTITLE11=Try Again
TTITLE12=Fingerprints
TTITLE13=If I Could Stay Asleep
TTITLE14=I've Loved And Lost Again
TTITLE15=The Heart You Break May Be Your Own Heart
TTITLE16=Stop Look And Listen
TTITLE17=Love Me, Love Honey Do
TTITLE18=Never No More
TTITLE19=I Can See An Angel
EXTD=
EXTT0=
EXTT1=
EXTT2=
EXTT3=
EXTT4=
EXTT5=
EXTT6=
EXTT7=
EXTT8=
EXTT9=
EXTT10=
EXTT11=
EXTT12=
EXTT13=
EXTT14=
EXTT15=
EXTT16=
EXTT17=
EXTT18=
EXTT19=
PLAYORDER=
